<?xml version="1.0" encoding="utf-8"?>
<svg id="svg3408" viewBox="0 0 768 384" xmlns="http://www.w3.org/2000/svg">
  <defs id="defs3438">
    <filter style="color-interpolation-filters:sRGB;" id="filter3550">
      <feFlood flood-opacity="0.498039" flood-color="rgb(0,0,0)" result="flood" id="feFlood3552"/>
      <feComposite in="flood" in2="SourceGraphic" operator="in" result="composite1" id="feComposite3554"/>
      <feGaussianBlur in="composite1" stdDeviation="5" result="blur" id="feGaussianBlur3556"/>
      <feOffset dx="0" dy="0" result="offset" id="feOffset3558"/>
      <feComposite in="SourceGraphic" in2="offset" operator="over" result="composite2" id="feComposite3560"/>
    </filter>
    <filter style="color-interpolation-filters:sRGB;" id="filter3562">
      <feFlood flood-opacity="0.498039" flood-color="rgb(0,0,0)" result="flood" id="feFlood3564"/>
      <feComposite in="flood" in2="SourceGraphic" operator="in" result="composite1" id="feComposite3566"/>
      <feGaussianBlur in="composite1" stdDeviation="5" result="blur" id="feGaussianBlur3568"/>
      <feOffset dx="0" dy="0" result="offset" id="feOffset3570"/>
      <feComposite in="SourceGraphic" in2="offset" operator="over" result="composite2" id="feComposite3572"/>
    </filter>
    <filter style="color-interpolation-filters:sRGB;" id="filter-1">
      <feFlood flood-opacity="0.498039" flood-color="rgb(0,0,0)" result="flood" id="feFlood-1"/>
      <feComposite in="flood" in2="SourceGraphic" operator="in" result="composite1" id="feComposite-1"/>
      <feGaussianBlur in="composite1" stdDeviation="5" result="blur" id="feGaussianBlur-1"/>
      <feOffset dx="0" dy="0" result="offset" id="feOffset-1"/>
      <feComposite in="SourceGraphic" in2="offset" operator="over" result="composite2" id="feComposite-2"/>
    </filter>
    <filter style="color-interpolation-filters:sRGB;" id="filter-2">
      <feFlood flood-opacity="0.498039" flood-color="rgb(0,0,0)" result="flood" id="feFlood-2"/>
      <feComposite in="flood" in2="SourceGraphic" operator="in" result="composite1" id="feComposite-3"/>
      <feGaussianBlur in="composite1" stdDeviation="5" result="blur" id="feGaussianBlur-2"/>
      <feOffset dx="0" dy="0" result="offset" id="feOffset-2"/>
      <feComposite in="SourceGraphic" in2="offset" operator="over" result="composite2" id="feComposite-4"/>
    </filter>
  </defs>
  <path d="M 33.515 26.551 Z" style="stroke: black; fill: none;" id="path3424"/>
  <path d="M 199.55 9.012 Z" style="stroke: black; fill: none;" id="path3426"/>
  <path d="M 532.203 376.743 Z" style="stroke: black; fill: none;" id="path3428"/>
  <path d="M 505.31 183.815 Z" style="stroke: black; fill: none;" id="path3430"/>
  <path d="M 505.31 181.477 Z" style="stroke: black; fill: none;" id="path3432"/>
  <path d="M 507.649 166.861 Z" style="stroke: black; fill: none;" id="path3434"/>
  <g transform="matrix(1, 0, 0, 1, 12.771237, 36.130989)">
    <g transform="matrix(1, 0, 0, 1, -11.528464, -36.130981)">
      <path d="M 456.977 307.489 C 439.608 218.618 537.704 219.68 534.229 222.384 L 569.804 317.449 L 634.263 94.144 L 634.263 58.791 L 569.804 282.097 L 534.229 187.031 C 513.902 219.161 452.311 167.153 463.617 141.046 C 386.037 187.114 416.131 272.103 456.977 307.489 Z" style="stroke: black; fill: rgb(255, 255, 0); stroke-width: 4.86526;" id="path3412" transform="matrix(-1, 0, 0, -1, 1020.299958, 376.240034)"/>
      <path d="M 454.928 296.073 C 429.11 248.569 469.33 196.137 584.362 199.724 L 619.936 294.789 L 684.396 71.484 L 684.396 36.131 L 619.936 259.437 L 584.362 164.372 C 481.222 207.055 415.448 214.232 386.037 189.582 C 386.228 229.298 420.846 277.322 454.928 296.073 Z" style="stroke:black;fill:rgb(33, 33, 33);filter:url(#filter3550)" id="path3414" transform="matrix(-1, 0, 0, -1, 1070.432953, 332.203966)"/>
      <path d="M 393.631 274.623 C 398.405 302.164 535.597 297.135 591.76 252.803 L 627.334 347.869 L 691.794 124.563 L 691.794 89.21 L 627.334 312.516 L 591.76 217.451 C 550.39 284.529 412.185 189.571 444.491 121.894 C 420.683 147.16 386.037 230.811 393.631 274.623 Z" style="stroke:black;fill:rgb(33, 33, 33);filter:url(#filter3562)" id="path3416" transform="matrix(-1, 0, 0, -1, 1077.831041, 437.078969)"/>
    </g>
    <g transform="matrix(-1, 0, 0, 1, 753.986023, -36.130981)">
      <path d="M 456.977 307.489 C 439.608 218.618 537.704 219.68 534.229 222.384 L 569.804 317.449 L 634.263 94.144 L 634.263 58.791 L 569.804 282.097 L 534.229 187.031 C 513.902 219.161 452.311 167.153 463.617 141.046 C 386.037 187.114 416.131 272.103 456.977 307.489 Z" style="stroke: black; fill: rgb(255, 255, 0); stroke-width: 4.86526;" id="path-1" transform="matrix(-1, 0, 0, -1, 1020.299958, 376.240034)"/>
      <path d="M 454.928 296.073 C 429.11 248.569 469.33 196.137 584.362 199.724 L 619.936 294.789 L 684.396 71.484 L 684.396 36.131 L 619.936 259.437 L 584.362 164.372 C 481.222 207.055 415.448 214.232 386.037 189.582 C 386.228 229.298 420.846 277.322 454.928 296.073 Z" style="stroke: black; fill: rgb(33, 33, 33); filter: url(#filter-1);" id="path-2" transform="matrix(-1, 0, 0, -1, 1070.432953, 332.203966)"/>
      <path d="M 393.631 274.623 C 398.405 302.164 535.597 297.135 591.76 252.803 L 627.334 347.869 L 691.794 124.563 L 691.794 89.21 L 627.334 312.516 L 591.76 217.451 C 550.39 284.529 412.185 189.571 444.491 121.894 C 420.683 147.16 386.037 230.811 393.631 274.623 Z" style="stroke: black; fill: rgb(33, 33, 33); filter: url(#filter-2);" id="path-3" transform="matrix(-1, 0, 0, -1, 1077.831041, 437.078969)"/>
    </g>
  </g>
</svg>